<?xml version="1.0" encoding="UTF-8" standalone="no"?><!DOCTYPE svg PUBLIC "-//W3C//DTD SVG 1.1//EN" "http://www.w3.org/Graphics/SVG/1.1/DTD/svg11.dtd"><svg width="100%" height="100%" viewBox="0 0 270 312" version="1.1" xmlns="http://www.w3.org/2000/svg" xmlns:xlink="http://www.w3.org/1999/xlink" xml:space="preserve" xmlns:serif="http://www.serif.com/" style="fill-rule:evenodd;clip-rule:evenodd;stroke-linecap:round;stroke-linejoin:round;stroke-miterlimit:1.5;"><g id="Cube-1" serif:id="Cube 1"><g id="Cube"><path d="M134.991,311.202l134.574,-77.696l-134.574,-77.697l-134.574,77.697l134.574,77.696Z" style="fill:#60a5fa;stroke:#000;stroke-width:0.83px;"/><path d="M0.417,78.113l-0,155.393l134.574,-77.697l-0,-155.392l-134.574,77.696Z" style="fill:#60a5fa;stroke:#000;stroke-width:0.83px;"/><path d="M269.565,78.113l-0,155.393l-134.574,-77.697l-0,-155.392l134.574,77.696Z" style="fill:#60a5fa;stroke:#000;stroke-width:0.83px;"/></g><g id="Mini-Cube" serif:id="Mini Cube"><g id="Cube1" serif:id="Cube"><path d="M134.991,108.646l-40.845,23.582l40.845,23.581l40.845,-23.581l-40.845,-23.582Z" style="fill:#3c3c3c;"/><path d="M175.836,179.391l-0,-47.163l-40.845,23.581l-0,47.164l40.845,-23.582Z" style="fill:#010100;"/><path d="M94.146,179.391l-0,-47.163l40.845,23.581l-0,47.164l-40.845,-23.582Z" style="fill:#010100;"/></g><path d="M175.836,132.228l51.551,76.246l-92.396,-5.501" style="fill-opacity:0.16;"/></g></g></svg>