<?xml version="1.0" encoding="UTF-8" standalone="no"?><!DOCTYPE svg PUBLIC "-//W3C//DTD SVG 1.1//EN" "http://www.w3.org/Graphics/SVG/1.1/DTD/svg11.dtd"><svg width="100%" height="100%" viewBox="0 0 1237 312" version="1.1" xmlns="http://www.w3.org/2000/svg" xmlns:xlink="http://www.w3.org/1999/xlink" xml:space="preserve" xmlns:serif="http://www.serif.com/" style="fill-rule:evenodd;clip-rule:evenodd;stroke-linecap:round;stroke-linejoin:round;stroke-miterlimit:1.5;"><g id="Logo"><g id="Cube-1" serif:id="Cube 1"><g id="Cube"><path d="M134.991,311.202l134.574,-77.696l-134.574,-77.697l-134.574,77.697l134.574,77.696Z" style="fill:#60a5fa;stroke:#000;stroke-width:0.83px;"/><path d="M0.417,78.113l-0,155.393l134.574,-77.697l-0,-155.392l-134.574,77.696Z" style="fill:#60a5fa;stroke:#000;stroke-width:0.83px;"/><path d="M269.565,78.113l-0,155.393l-134.574,-77.697l-0,-155.392l134.574,77.696Z" style="fill:#60a5fa;stroke:#000;stroke-width:0.83px;"/></g><g id="Mini-Cube" serif:id="Mini Cube"><g id="Cube1" serif:id="Cube"><path d="M134.991,108.646l-40.845,23.582l40.845,23.581l40.845,-23.581l-40.845,-23.582Z" style="fill:#3c3c3c;"/><path d="M175.836,179.391l-0,-47.163l-40.845,23.581l-0,47.164l40.845,-23.582Z" style="fill:#010100;"/><path d="M94.146,179.391l-0,-47.163l40.845,23.581l-0,47.164l-40.845,-23.582Z" style="fill:#010100;"/></g><path d="M175.836,132.228l51.551,76.246l-92.396,-5.501" style="fill-opacity:0.16;"/></g></g><g><path d="M325.291,214.985c-1.617,-0 -2.426,-0.809 -2.426,-2.426l-0,-108.647c-0,-1.617 0.809,-2.426 2.426,-2.426l38.815,-0c14.44,-0 25.299,2.281 32.576,6.844c7.278,4.564 10.917,11.524 10.917,20.881c0,6.931 -1.473,12.418 -4.419,16.461c-2.945,4.044 -7.48,7.105 -13.602,9.184l-0,0.52c7.162,1.386 12.765,4.13 16.808,8.231c4.043,4.101 6.065,9.906 6.065,17.415c-0,12.129 -3.783,20.822 -11.35,26.078c-7.567,5.257 -19.956,7.885 -37.169,7.885l-38.641,-0Zm26.165,-23.047l14.036,0c6.469,0 11.148,-0.924 14.036,-2.772c2.888,-1.849 4.332,-5.025 4.332,-9.531c-0,-4.043 -1.473,-7.017 -4.419,-8.924c-2.946,-1.906 -7.653,-2.859 -14.122,-2.859l-13.863,0l0,24.086Zm0,-44.706l12.476,-0c5.314,-0 9.155,-0.982 11.524,-2.946c2.368,-1.964 3.552,-4.909 3.552,-8.837c-0,-3.581 -1.3,-6.296 -3.899,-8.144c-2.599,-1.849 -6.671,-2.773 -12.216,-2.773l-11.437,0l0,22.7Z" style="fill-rule:nonzero;"/><path d="M422.848,214.985c-1.618,-0 -2.426,-0.809 -2.426,-2.426l-0,-113.499c-0,-1.617 0.808,-2.426 2.426,-2.426l22.873,0c1.617,0 2.426,0.809 2.426,2.426l-0,113.499c-0,1.617 -0.809,2.426 -2.426,2.426l-22.873,-0Z" style="fill-rule:nonzero;"/><path d="M500.651,217.064c-12.939,-0 -23.076,-3.061 -30.411,-9.184c-7.336,-6.122 -11.003,-15.306 -11.003,-27.551l-0,-16.809c-0,-12.245 3.639,-21.429 10.916,-27.551c7.278,-6.123 17.444,-9.184 30.498,-9.184c13.053,-0 23.219,3.061 30.497,9.184c7.278,6.122 10.917,15.306 10.917,27.551l-0,16.809c-0,12.245 -3.639,21.429 -10.917,27.551c-7.278,6.123 -17.444,9.184 -30.497,9.184Zm-0,-23.393c4.736,0 8.202,-1.213 10.397,-3.639c2.194,-2.426 3.292,-6.527 3.292,-12.303l-0,-11.783c-0,-5.66 -1.098,-9.703 -3.292,-12.129c-2.195,-2.426 -5.661,-3.639 -10.397,-3.639c-4.737,-0 -8.202,1.213 -10.397,3.639c-2.195,2.426 -3.292,6.469 -3.292,12.129l-0,11.783c-0,5.776 1.097,9.877 3.292,12.303c2.195,2.426 5.66,3.639 10.397,3.639Z" style="fill-rule:nonzero;"/><path d="M593.182,217.064c-13.169,-0 -23.306,-3.148 -30.41,-9.444c-7.105,-6.296 -10.657,-15.335 -10.657,-27.118l-0,-17.155c-0,-11.783 3.581,-20.823 10.743,-27.118c7.163,-6.296 17.271,-9.444 30.324,-9.444c8.896,-0 16.318,1.473 22.267,4.419c5.949,2.945 10.368,6.902 13.256,11.869c2.888,4.968 4.043,10.513 3.466,16.635c-0.116,1.964 -0.925,2.946 -2.426,2.946l-21.141,-0c-1.501,-0 -2.252,-0.809 -2.252,-2.426c-0,-3.466 -1.155,-6.007 -3.466,-7.624c-2.31,-1.618 -5.429,-2.426 -9.357,-2.426c-4.621,-0 -8.058,1.184 -10.31,3.552c-2.253,2.368 -3.379,6.44 -3.379,12.216l-0,11.783c-0,5.776 1.126,9.848 3.379,12.217c2.252,2.368 5.631,3.552 10.137,3.552c4.389,-0 7.624,-0.924 9.703,-2.773c2.08,-1.848 3.119,-4.274 3.119,-7.277c0,-1.618 0.751,-2.426 2.253,-2.426l21.14,-0c1.502,-0 2.311,0.808 2.426,2.426c0.578,10.165 -2.397,18.31 -8.924,24.432c-6.527,6.123 -16.49,9.184 -29.891,9.184Z" style="fill-rule:nonzero;"/><path d="M646.033,214.985c-1.617,-0 -2.426,-0.809 -2.426,-2.426l0,-113.499c0,-1.617 0.809,-2.426 2.426,-2.426l22.873,0c1.617,0 2.426,0.809 2.426,2.426l-0,39.335c-0,3.927 -0.058,7.884 -0.173,11.869c-0.116,3.986 -0.289,8 -0.52,12.043l0.52,0c1.732,-2.888 3.581,-5.776 5.545,-8.664c1.963,-2.888 3.87,-5.602 5.718,-8.144l11.61,-15.249c0.693,-0.924 1.617,-1.386 2.772,-1.386l27.898,0c1.04,0 1.704,0.26 1.993,0.78c0.289,0.52 0.087,1.184 -0.606,1.993l-28.592,34.656l30.844,45.746c0.578,0.808 0.722,1.502 0.433,2.079c-0.288,0.578 -0.895,0.867 -1.819,0.867l-27.032,-0c-1.271,-0 -2.252,-0.52 -2.946,-1.56l-18.367,-28.591l-7.278,8.491l-0,19.234c-0,1.617 -0.809,2.426 -2.426,2.426l-22.873,-0Z" style="fill-rule:nonzero;"/><path d="M732.413,214.985c-0.982,-0 -1.386,-0.462 -1.213,-1.387l17.588,-110.812c0.174,-0.867 0.665,-1.3 1.473,-1.3l26.166,-0c12.302,-0 21.429,2.383 27.378,7.148c5.949,4.765 8.924,11.739 8.924,20.923c-0,8.838 -1.791,16.245 -5.372,22.224c-3.581,5.978 -8.794,10.483 -15.638,13.515c-6.845,3.033 -15.119,4.549 -24.823,4.549l-19.581,0l-6.931,43.753c-0.173,0.925 -0.664,1.387 -1.473,1.387l-6.498,-0Zm16.202,-53.284l19.234,-0c11.841,-0 20.736,-2.628 26.685,-7.884c5.95,-5.257 8.924,-13.083 8.924,-23.48c0,-7.451 -2.397,-12.765 -7.191,-15.942c-4.794,-3.177 -11.725,-4.765 -20.793,-4.765l-18.542,0l-8.317,52.071Z" style="fill-rule:nonzero;"/><path d="M823.039,214.985c-0.866,-0 -1.213,-0.434 -1.04,-1.3l9.964,-62.554c0.578,-3.119 1.011,-6.253 1.3,-9.401c0.288,-3.148 0.49,-6.223 0.606,-9.227c0,-0.866 0.462,-1.299 1.386,-1.299l6.325,-0c0.809,-0 1.213,0.375 1.213,1.126c-0.058,2.426 -0.217,5.126 -0.477,8.101c-0.259,2.974 -0.649,5.906 -1.169,8.794l-0.52,5.371l-9.444,59.089c-0.115,0.404 -0.274,0.722 -0.476,0.953c-0.203,0.231 -0.535,0.347 -0.997,0.347l-6.671,-0Zm15.075,-56.143l1.387,-9.444c2.83,-3.408 6.05,-6.657 9.66,-9.747c3.61,-3.09 7.379,-5.617 11.307,-7.581c3.927,-1.964 7.682,-2.946 11.263,-2.946c2.426,0 4.13,0.173 5.112,0.52c0.404,0.115 0.649,0.303 0.736,0.563c0.087,0.26 0.101,0.592 0.043,0.997c-0.115,1.328 -0.317,2.743 -0.606,4.245c-0.289,1.502 -0.607,2.946 -0.953,4.332c-0.231,0.866 -0.809,1.155 -1.733,0.866c-0.635,-0.173 -1.43,-0.303 -2.383,-0.39c-0.953,-0.086 -2.093,-0.13 -3.422,-0.13c-3.523,0 -7.032,0.838 -10.527,2.513c-3.494,1.675 -6.902,3.942 -10.223,6.801c-3.321,2.859 -6.542,5.993 -9.661,9.401Z" style="fill-rule:nonzero;"/><path d="M912.625,217.064c-10.974,-0 -19.018,-2.902 -24.129,-8.707c-5.112,-5.805 -6.83,-14.108 -5.155,-24.909l3.725,-23.22c1.675,-10.397 5.588,-18.18 11.74,-23.35c6.151,-5.169 14.57,-7.754 25.256,-7.754c10.685,0 18.67,2.845 23.956,8.534c5.285,5.69 7.118,13.935 5.501,24.736l-3.552,23.046c-1.617,10.686 -5.516,18.628 -11.696,23.826c-6.181,5.199 -14.729,7.798 -25.646,7.798Zm1.04,-8.404c7.913,-0 14.122,-1.993 18.627,-5.978c4.506,-3.986 7.365,-9.993 8.578,-18.021l3.292,-21.314c1.329,-8.606 0.159,-15.061 -3.509,-19.364c-3.668,-4.303 -9.516,-6.455 -17.545,-6.455c-7.97,0 -14.151,1.979 -18.541,5.935c-4.389,3.957 -7.22,9.949 -8.49,17.978l-3.466,21.487c-1.328,8.375 -0.245,14.757 3.249,19.147c3.495,4.39 9.429,6.585 17.805,6.585Z" style="fill-rule:nonzero;"/><path d="M999.525,131.117l27.552,-0c0.808,-0 1.155,0.462 1.039,1.386l-1.039,5.718c-0.116,0.809 -0.578,1.213 -1.386,1.213l-27.552,0l-10.743,68.446c-1.04,6.123 -2.398,11.697 -4.073,16.722c-1.675,5.025 -3.841,9.501 -6.498,13.429c-2.657,3.928 -6.007,7.393 -10.05,10.397c-0.577,0.462 -1.155,0.404 -1.733,-0.174l-4.678,-4.332c-0.578,-0.577 -0.52,-1.213 0.173,-1.906c3.35,-2.772 6.18,-5.805 8.491,-9.097c2.31,-3.292 4.216,-7.047 5.718,-11.263c1.502,-4.217 2.657,-9.097 3.466,-14.642l10.743,-67.58l-13.862,0c-0.809,0 -1.156,-0.462 -1.04,-1.386l1.04,-5.718c0.115,-0.809 0.577,-1.213 1.386,-1.213l13.862,-0l1.56,-10.224c1.386,-9.01 4.361,-15.653 8.924,-19.927c4.563,-4.274 11.176,-6.411 19.84,-6.411c2.773,-0 5.661,0.26 8.664,0.779c3.004,0.52 5.603,1.3 7.798,2.34c0.693,0.231 0.982,0.751 0.866,1.559l-0.866,5.892c-0.116,0.808 -0.578,1.039 -1.386,0.693c-2.311,-1.04 -4.708,-1.791 -7.191,-2.253c-2.484,-0.462 -5.17,-0.693 -8.058,-0.693c-6.122,0 -10.657,1.473 -13.602,4.419c-2.946,2.946 -4.939,7.653 -5.979,14.122l-1.386,9.704Zm59.782,-0l27.552,-0c0.808,-0 1.155,0.462 1.039,1.386l-1.039,5.718c-0.116,0.809 -0.578,1.213 -1.387,1.213l-27.551,0l-10.744,68.446c-1.039,6.123 -2.397,11.697 -4.072,16.722c-1.675,5.025 -3.841,9.501 -6.498,13.429c-2.657,3.928 -6.007,7.393 -10.05,10.397c-0.578,0.462 -1.155,0.404 -1.733,-0.174l-4.678,-4.332c-0.578,-0.577 -0.52,-1.213 0.173,-1.906c3.35,-2.772 6.18,-5.805 8.491,-9.097c2.31,-3.292 4.216,-7.047 5.718,-11.263c1.502,-4.217 2.657,-9.097 3.465,-14.642l10.744,-67.58l-13.863,0c-0.808,0 -1.155,-0.462 -1.039,-1.386l1.039,-5.718c0.116,-0.809 0.578,-1.213 1.387,-1.213l13.862,-0l1.56,-10.224c1.386,-9.01 4.36,-15.653 8.924,-19.927c4.563,-4.274 11.176,-6.411 19.84,-6.411c2.773,-0 5.661,0.26 8.664,0.779c3.004,0.52 5.603,1.3 7.798,2.34c0.693,0.231 0.982,0.751 0.866,1.559l-0.866,5.892c-0.116,0.808 -0.578,1.039 -1.386,0.693c-2.311,-1.04 -4.708,-1.791 -7.192,-2.253c-2.483,-0.462 -5.169,-0.693 -8.057,-0.693c-6.123,0 -10.657,1.473 -13.603,4.419c-2.945,2.946 -4.938,7.653 -5.978,14.122l-1.386,9.704Z" style="fill-rule:nonzero;"/><path d="M1123.94,217.064c-10.513,-0 -18.325,-2.859 -23.437,-8.577c-5.111,-5.719 -6.859,-13.805 -5.241,-24.26l3.812,-23.912c1.733,-10.455 5.574,-18.267 11.523,-23.437c5.949,-5.169 14.122,-7.754 24.519,-7.754c9.184,0 16.173,1.834 20.967,5.502c4.794,3.668 7.191,8.88 7.191,15.638c0,7.74 -2.469,13.704 -7.408,17.892c-4.938,4.187 -12.404,6.83 -22.396,7.927l-28.331,3.119l-0.867,6.325c-1.097,7.451 0.13,13.169 3.682,17.155c3.553,3.985 9.17,5.978 16.852,5.978c6.469,-0 11.653,-1.271 15.552,-3.812c3.899,-2.542 6.166,-6.181 6.801,-10.917c0.116,-0.866 0.549,-1.3 1.3,-1.3l6.931,0c0.751,0 1.126,0.405 1.126,1.213c-0.346,4.794 -1.863,8.924 -4.548,12.39c-2.686,3.466 -6.426,6.137 -11.22,8.014c-4.794,1.877 -10.397,2.816 -16.808,2.816Zm-17.415,-45.919l25.732,-2.946c7.798,-0.924 13.328,-2.715 16.592,-5.372c3.263,-2.657 4.895,-6.671 4.895,-12.043c-0,-4.216 -1.704,-7.48 -5.112,-9.79c-3.408,-2.311 -8.173,-3.466 -14.296,-3.466c-7.624,0 -13.588,1.906 -17.891,5.718c-4.303,3.813 -7.032,9.415 -8.187,16.809l-1.733,11.09Z" style="fill-rule:nonzero;"/><path d="M1181.73,214.985c-0.867,-0 -1.213,-0.434 -1.04,-1.3l9.964,-62.554c0.577,-3.119 1.01,-6.253 1.299,-9.401c0.289,-3.148 0.491,-6.223 0.607,-9.227c-0,-0.866 0.462,-1.299 1.386,-1.299l6.325,-0c0.808,-0 1.213,0.375 1.213,1.126c-0.058,2.426 -0.217,5.126 -0.477,8.101c-0.26,2.974 -0.65,5.906 -1.17,8.794l-0.519,5.371l-9.444,59.089c-0.116,0.404 -0.275,0.722 -0.477,0.953c-0.202,0.231 -0.534,0.347 -0.996,0.347l-6.671,-0Zm15.075,-56.143l1.386,-9.444c2.83,-3.408 6.051,-6.657 9.661,-9.747c3.61,-3.09 7.378,-5.617 11.306,-7.581c3.928,-1.964 7.682,-2.946 11.263,-2.946c2.426,0 4.13,0.173 5.112,0.52c0.404,0.115 0.65,0.303 0.737,0.563c0.086,0.26 0.101,0.592 0.043,0.997c-0.116,1.328 -0.318,2.743 -0.607,4.245c-0.288,1.502 -0.606,2.946 -0.953,4.332c-0.231,0.866 -0.808,1.155 -1.732,0.866c-0.636,-0.173 -1.43,-0.303 -2.383,-0.39c-0.953,-0.086 -2.094,-0.13 -3.422,-0.13c-3.524,0 -7.033,0.838 -10.527,2.513c-3.495,1.675 -6.902,3.942 -10.224,6.801c-3.321,2.859 -6.541,5.993 -9.66,9.401Z" style="fill-rule:nonzero;"/></g></g></svg>